<?xml version="1.0" encoding="UTF-8" standalone="no"?>
<!-- Created with Inkscape (http://www.inkscape.org/) -->

<svg
   xmlns:dc="http://purl.org/dc/elements/1.1/"
   xmlns:cc="http://creativecommons.org/ns#"
   xmlns:rdf="http://www.w3.org/1999/02/22-rdf-syntax-ns#"
   xmlns:svg="http://www.w3.org/2000/svg"
   xmlns="http://www.w3.org/2000/svg"
   xmlns:xlink="http://www.w3.org/1999/xlink"
   xmlns:sodipodi="http://sodipodi.sourceforge.net/DTD/sodipodi-0.dtd"
   xmlns:inkscape="http://www.inkscape.org/namespaces/inkscape"
   id="svg2"
   version="1.1"
   inkscape:version="0.91 r13725"
   xml:space="preserve"
   width="1167.5002"
   height="358.7547"
   viewBox="0 0 1167.5002 358.7547"
   sodipodi:docname="StatusPile_Logo.svg"
   inkscape:export-filename="/home/dan/AllStaff/Marketing/StatusPile/StatusPile_Logo7.png"
   inkscape:export-xdpi="16.693205"
   inkscape:export-ydpi="16.693205"><metadata
     id="metadata8"><rdf:RDF><cc:Work
         rdf:about=""><dc:format>image/svg+xml</dc:format><dc:type
           rdf:resource="http://purl.org/dc/dcmitype/StillImage" /><dc:title></dc:title></cc:Work></rdf:RDF></metadata><defs
     id="defs6"><clipPath
       clipPathUnits="userSpaceOnUse"
       id="clipPath16"><path
         d="m 0,1000 1000,0 L 1000,0 0,0 0,1000 Z"
         id="path18"
         inkscape:connector-curvature="0" /></clipPath><linearGradient
       id="linearGradient4254"><stop
         id="stop4286"
         offset="0"
         style="stop-color:#54779b;stop-opacity:1;" /><stop
         style="stop-color:#002d56;stop-opacity:1;"
         offset="1"
         id="stop4258" /></linearGradient><linearGradient
       inkscape:collect="always"
       xlink:href="#linearGradient4254"
       id="linearGradient4189"
       x1="639.75323"
       y1="94.216675"
       x2="639.75323"
       y2="217.30563"
       gradientUnits="userSpaceOnUse"
       gradientTransform="translate(0,-10)" /></defs><sodipodi:namedview
     pagecolor="#ffffff"
     bordercolor="#666666"
     borderopacity="1"
     objecttolerance="10"
     gridtolerance="10"
     guidetolerance="10"
     inkscape:pageopacity="0"
     inkscape:pageshadow="2"
     inkscape:window-width="1855"
     inkscape:window-height="1056"
     id="namedview4"
     showgrid="false"
     inkscape:zoom="0.7552"
     inkscape:cx="581.31122"
     inkscape:cy="162.69991"
     inkscape:window-x="1985"
     inkscape:window-y="24"
     inkscape:window-maximized="1"
     inkscape:current-layer="layer1"
     fit-margin-top="50"
     fit-margin-left="50"
     fit-margin-right="50"
     fit-margin-bottom="50"
     showborder="true"
     borderlayer="false"
     inkscape:showpageshadow="true" /><g
     id="g10"
     inkscape:groupmode="layer"
     inkscape:label="StatusPile_Logo"
     transform="matrix(1.25,0,0,-1.25,-41.249666,804.3772)"
     style="display:inline"
     sodipodi:insensitive="true"><g
       id="g4389"><g
         transform="translate(156.249,436.2002)"
         id="g56"
         style="fill:#002d56;fill-opacity:1"><path
           inkscape:connector-curvature="0"
           id="path58"
           style="fill:#002d56;fill-opacity:1;fill-rule:nonzero;stroke:none"
           d="m 0,0 c -1.757,0 -3.51,0.362 -5.151,1.09 l -70.515,31.215 c -6.432,2.844 -9.337,10.364 -6.49,16.795 2.843,6.427 10.357,9.337 16.793,6.487 L 0,26.653 65.368,55.587 C 71.795,58.437 79.313,55.527 82.16,49.1 85.007,42.669 82.103,35.149 75.67,32.305 L 5.151,1.09 C 3.515,0.362 1.757,0 0,0" /></g><g
         transform="translate(156.249,396.498)"
         id="g60"
         style="fill:#002d56;fill-opacity:1"><path
           inkscape:connector-curvature="0"
           id="path62"
           style="fill:#002d56;fill-opacity:1;fill-rule:nonzero;stroke:none"
           d="m 0,0 c -1.757,0 -3.51,0.362 -5.151,1.09 l -70.515,31.215 c -6.432,2.844 -9.337,10.364 -6.49,16.795 2.843,6.424 10.357,9.338 16.793,6.487 L 0,26.654 65.368,55.587 C 71.795,58.438 79.313,55.524 82.16,49.1 85.007,42.669 82.103,35.149 75.67,32.305 L 5.151,1.09 C 3.515,0.362 1.757,0 0,0" /></g><g
         transform="translate(156.249,475.9023)"
         id="g64"
         style="fill:#002d56;fill-opacity:1"><path
           inkscape:connector-curvature="0"
           id="path66"
           style="fill:#002d56;fill-opacity:1;fill-rule:nonzero;stroke:none"
           d="m 0,0 c -1.757,0 -3.51,0.362 -5.151,1.09 l -70.515,31.214 c -6.432,2.845 -9.337,10.365 -6.49,16.795 2.843,6.428 10.357,9.343 16.793,6.488 L 0,26.654 l 57.788,25.578 0,11.857 L 5.151,40.792 c -3.274,-1.455 -7.02,-1.455 -10.302,0 l -70.515,31.214 c -4.608,2.039 -7.58,6.604 -7.58,11.642 0,5.037 2.972,9.602 7.58,11.641 l 70.515,31.214 c 6.423,2.854 13.945,-0.057 16.793,-6.487 2.847,-6.43 -0.059,-13.95 -6.491,-16.795 L -39.063,83.648 0,66.356 65.368,95.289 c 3.928,1.743 8.479,1.376 12.097,-0.972 3.61,-2.35 5.785,-6.363 5.785,-10.669 l 0,-39.702 c 0,-5.038 -2.971,-9.603 -7.58,-11.642 L 5.151,1.09 C 3.515,0.362 1.757,0 0,0" /></g></g></g><g
     inkscape:groupmode="layer"
     id="layer1"
     inkscape:label="StatusPile_Text"
     style="display:inline"
     transform="translate(-41.249666,-445.6228)"
     sodipodi:insensitive="true"><g
       id="g4419"
       style="fill:#008000;fill-opacity:1"><g
         id="g4405"
         style="fill:#008000;fill-opacity:1"><g
           style="display:inline;fill:#008000;fill-opacity:1"
           id="g20"
           transform="matrix(1.25,0,0,-1.25,361.5845,651.14863)"><path
             d="m 0,0 c 6.78,-7.068 17.311,-12.984 30.585,-12.984 11.251,0 16.734,5.338 16.734,10.82 0,7.214 -8.367,9.667 -19.473,12.264 -15.728,3.607 -35.927,7.933 -35.927,29.432 0,16.013 13.85,28.997 36.502,28.997 15.293,0 27.991,-4.616 37.51,-13.417 L 54.535,40.108 c -7.792,7.213 -18.177,10.533 -27.556,10.533 -9.233,0 -14.14,-4.041 -14.14,-9.812 0,-6.492 8.081,-8.512 19.188,-11.109 C 47.899,26.113 68.095,21.353 68.095,0 c 0,-17.601 -12.549,-30.875 -38.521,-30.875 -18.467,0 -31.737,6.204 -40.83,15.294 L 0,0 Z"
             style="fill:#008000;fill-opacity:1;fill-rule:nonzero;stroke:none"
             id="path22"
             inkscape:connector-curvature="0" /></g><g
           style="display:inline;fill:#008000;fill-opacity:1"
           id="g24"
           transform="matrix(1.25,0,0,-1.25,466.015,665.93625)"><path
             d="m 0,0 0,36.355 -11.542,0 0,16.016 11.542,0 0,19.043 18.467,0 0,-19.043 14.136,0 0,-16.016 -14.136,0 0,-31.451 c 0,-4.326 2.308,-7.645 6.345,-7.645 2.743,0 5.342,1.011 6.349,2.02 l 3.896,-13.85 C 32.317,-17.024 27.41,-19.045 19.764,-19.045 6.925,-19.045 0,-12.408 0,0"
             style="fill:#008000;fill-opacity:1;fill-rule:nonzero;stroke:none"
             id="path26"
             inkscape:connector-curvature="0" /></g><g
           style="display:inline;fill:#008000;fill-opacity:1"
           id="g28"
           transform="matrix(1.25,0,0,-1.25,574.76562,655.83737)"><path
             d="m 0,0 c -3.033,4.041 -8.802,6.059 -14.716,6.059 -7.215,0 -13.129,-3.896 -13.129,-10.531 0,-6.494 5.914,-10.244 13.129,-10.244 5.914,0 11.683,2.02 14.716,6.059 L 0,0 Z m 0,-18.179 c -4.762,-5.626 -12.988,-8.945 -22.076,-8.945 -11.107,0 -24.236,7.503 -24.236,23.084 0,16.303 13.129,22.219 24.236,22.219 9.233,0 17.459,-2.886 22.076,-8.512 l 0,9.666 c 0,7.068 -6.063,11.685 -15.296,11.685 -7.501,0 -14.427,-2.742 -20.34,-8.222 l -6.926,12.263 c 8.513,7.501 19.479,10.963 30.44,10.963 15.872,0 30.444,-6.347 30.444,-26.401 l 0,-45.013 -18.322,0 0,7.213 z"
             style="fill:#008000;fill-opacity:1;fill-rule:nonzero;stroke:none"
             id="path30"
             inkscape:connector-curvature="0" /></g><g
           style="display:inline;fill:#008000;fill-opacity:1"
           id="g32"
           transform="matrix(1.25,0,0,-1.25,624.906,665.93625)"><path
             d="m 0,0 0,36.355 -11.542,0 0,16.016 11.542,0 0,19.043 18.467,0 0,-19.043 14.14,0 0,-16.016 -14.14,0 0,-31.451 c 0,-4.326 2.308,-7.645 6.349,-7.645 2.74,0 5.338,1.011 6.349,2.02 l 3.896,-13.85 C 32.317,-17.024 27.415,-19.045 19.769,-19.045 6.925,-19.045 0,-12.408 0,0"
             style="fill:#008000;fill-opacity:1;fill-rule:nonzero;stroke:none"
             id="path34"
             inkscape:connector-curvature="0" /></g><g
           style="display:inline;fill:#008000;fill-opacity:1"
           id="g36"
           transform="matrix(1.25,0,0,-1.25,740.15325,676.57713)"><path
             d="m 0,0 c -4.762,-5.338 -13.129,-10.532 -24.526,-10.532 -15.292,0 -22.507,8.369 -22.507,21.931 l 0,49.485 18.322,0 0,-42.272 c 0,-9.667 5.051,-12.841 12.838,-12.841 7.071,0 12.699,3.896 15.873,7.937 l 0,47.176 18.322,0 0,-69.684 L 0,-8.8 0,0 Z"
             style="fill:#008000;fill-opacity:1;fill-rule:nonzero;stroke:none"
             id="path38"
             inkscape:connector-curvature="0" /></g><g
           style="display:inline;fill:#008000;fill-opacity:1"
           id="g40"
           transform="matrix(1.25,0,0,-1.25,788.128,660.16475)"><path
             d="m 0,0 c 5.052,-4.763 15.438,-9.521 24.095,-9.521 7.936,0 11.687,2.741 11.687,7.067 0,4.907 -6.059,6.638 -13.995,8.225 -11.973,2.308 -27.411,5.192 -27.411,21.784 0,11.687 10.241,21.929 28.567,21.929 11.828,0 21.206,-4.039 27.986,-9.521 L 43.718,27.412 c -4.186,4.471 -12.122,8.079 -20.635,8.079 -6.634,0 -10.961,-2.453 -10.961,-6.492 0,-4.329 5.483,-5.916 13.27,-7.503 11.977,-2.309 27.99,-5.483 27.99,-22.796 0,-12.839 -10.82,-22.362 -30.153,-22.362 -12.118,0 -23.805,4.041 -31.161,10.82 L 0,0 Z"
             style="fill:#008000;fill-opacity:1;fill-rule:nonzero;stroke:none"
             id="path42"
             inkscape:connector-curvature="0" /></g></g><g
         id="g4397"
         style="fill:#008000;fill-opacity:1"><g
           style="display:inline;fill:#008000;fill-opacity:1"
           id="g44"
           transform="matrix(1.25,0,0,-1.25,925.19475,589.29075)"><path
             d="m 0,0 -21.782,0 0,-26.546 21.782,0 c 8.081,0 14.14,5.193 14.14,13.272 C 14.14,-5.338 8.081,0 0,0 m -42.271,17.601 45.015,0 c 20.92,0 32.317,-14.139 32.317,-31.02 0,-16.734 -11.542,-30.729 -32.317,-30.729 l -24.526,0 0,-34.481 -20.489,0 0,96.23 z"
             style="fill:#008000;fill-opacity:1;fill-rule:nonzero;stroke:none"
             id="path46"
             inkscape:connector-curvature="0" /></g><path
           d="m 984.35875,600.4725 22.90255,0 0,87.105 -22.90255,0 0,-87.105 z m -2.34625,-26.51125 c 0,-7.5725 6.315,-13.70375 13.7075,-13.70375 7.5738,0 13.7075,6.13125 13.7075,13.70375 0,7.575 -6.1337,13.7075 -13.7075,13.7075 -7.3925,0 -13.7075,-6.1325 -13.7075,-13.7075"
           style="display:inline;fill:#008000;fill-opacity:1;fill-rule:nonzero;stroke:none"
           id="path48"
           inkscape:connector-curvature="0" /><path
           d="m 1029.9875,567.29 22.9025,0 0,120.28625 -22.9025,0 0,-120.28625 z"
           style="display:inline;fill:#008000;fill-opacity:1;fill-rule:nonzero;stroke:none"
           id="path50"
           inkscape:connector-curvature="0" /><g
           style="display:inline;fill:#008000;fill-opacity:1"
           id="g52"
           transform="matrix(1.25,0,0,-1.25,1093.6486,635.82038)"><path
             d="M 0,0 34.339,0 C 33.904,6.637 29.288,15.438 17.17,15.438 5.773,15.438 0.866,6.925 0,0 m 17.17,30.009 c 20.775,0 34.911,-15.581 34.911,-38.376 l 0,-4.039 -51.791,0 c 1.152,-8.8 8.222,-16.158 20.054,-16.158 6.49,0 14.136,2.596 18.612,6.924 l 8.077,-11.832 c -7.07,-6.491 -17.89,-9.666 -28.711,-9.666 -21.206,0 -37.22,14.284 -37.22,36.646 0,20.199 14.857,36.501 36.068,36.501"
             style="fill:#008000;fill-opacity:1;fill-rule:nonzero;stroke:none"
             id="path54"
             inkscape:connector-curvature="0" /></g></g></g></g></svg>